<svg width="163" height="169" viewBox="0 0 163 169" fill="none" xmlns="http://www.w3.org/2000/svg">
<path d="M95.5003 15.7069C100.719 16.5106 114.779 8.94302 121.157 5.05875C115.922 7.2195 111.648 6.67512 110.166 6.13284C97.8804 8.9267 93.6892 12.1803 93.1294 13.4579C85.8182 16.2408 79.3634 16.5968 77.05 16.4269C55.2476 16.1538 52.0959 25.0149 53.2453 29.4795L56.897 43.5525L54.8209 44.1747L81.5331 140.861C81.9095 141.488 81.9765 143.096 79.2327 144.51C76.4889 145.924 75.4708 143.911 75.3048 142.727C71.2253 131.002 62.3889 106.423 59.6784 101.908C56.9679 97.3937 49.4655 93.6244 46.0531 92.3041C50.878 81.9797 40.5888 87.2828 34.7466 94.2126C30.0728 99.7565 26.3937 105.348 25.1383 107.45C18.9414 118.482 27.1763 113.622 32.0683 109.813C52.7461 118.413 55.1147 139.53 57.3527 146.997C59.5906 154.465 67.4362 159.883 80.0962 156.829C90.2243 154.386 95.2131 146.873 96.4415 143.422L102.354 142.39L102.62 131.952L98.9869 133.041L89.9333 102.83L88.3763 103.297C87.8149 99.9134 85.5307 99.4635 84.4587 99.6614L68.9965 48.0651L70.5535 47.5985L65.3551 32.1394L63.7981 32.606C63.1553 28.9513 61.1968 28.3298 60.2978 28.4759C60.4307 23.257 67.4023 18.2083 75.6859 19.4252C82.3128 20.3987 91.6567 17.352 95.5003 15.7069Z" fill="#EEC453"/>
<path d="M25.5244 112.514C21.0566 114.592 28.4767 103.49 32.3341 99.3748C46.3189 81.8662 47.1437 87.9079 42.1043 94.2273C37.5818 99.8984 29.8588 110.497 25.5244 112.514Z" fill="#B46144"/>
<ellipse cx="61.3729" cy="58.4883" rx="2.16732" ry="3.898" transform="rotate(-16.6823 61.3729 58.4883)" fill="#B46144"/>
<ellipse cx="69.5109" cy="85.6441" rx="2.16732" ry="3.898" transform="rotate(-16.6823 69.5109 85.6441)" fill="#B46144"/>
<ellipse cx="66.6626" cy="76.1394" rx="2.16732" ry="3.898" transform="rotate(-16.6823 66.6626 76.1394)" fill="#B46144"/>
<ellipse cx="64.0177" cy="67.3138" rx="2.16732" ry="3.898" transform="rotate(-16.6823 64.0177 67.3138)" fill="#B46144"/>
<path d="M95.4521 16.1924C91.9982 16.5515 92.2262 14.6242 92.772 13.6157C94.3627 10.4351 106.198 6.77573 111.916 5.34364C113.501 7.23479 120.822 5.35053 124.285 4.17201C104.087 15.2948 99.7695 15.7436 95.4521 16.1924Z" fill="#88371B"/>
</svg>
