<svg width="123" height="151" viewBox="0 0 123 151" fill="none" xmlns="http://www.w3.org/2000/svg">
<path d="M20.7137 45.1917L33.2151 64.8056L14.8035 82.0969L40.656 73.9317L47.9661 90.349L50.6732 70.7594L77.4069 63.3461L51.1979 59.7945L52.1187 38.3721L42.6973 56.5499L20.7137 45.1917Z" fill="#EEC453"/>
<path d="M97.6458 7.27989L85.9468 27.3826L62.1384 18.9482L81.248 38.1796L70.0095 52.2033L88.66 45.6274L107.505 65.9867L98.645 41.0663L118.105 32.0627L97.6311 32.0242L97.6458 7.27989Z" fill="#EEC453"/>
<path d="M77.7429 77L68.6286 106.975L35 103.228L65.8 122.586L55.4286 144.443L77.7429 130.08L108.543 151L89.3714 121.025L112 103.228L85.2857 109.473L77.7429 77Z" fill="#EEC453"/>
</svg>
