<svg width="157" height="157" viewBox="0 0 157 157" fill="none" xmlns="http://www.w3.org/2000/svg">
<g clip-path="url(#clip0_42_502)">
<path d="M78.5 0C35.1442 0 0 35.1442 0 78.5C0 121.856 35.1442 157 78.5 157C121.856 157 157 121.856 157 78.5C157 35.1496 121.856 0.00535653 78.5 0ZM114.501 113.216C113.092 115.53 110.077 116.253 107.773 114.844C89.3416 103.579 66.1371 101.035 38.8134 107.275C36.178 107.881 33.5533 106.231 32.9534 103.595C32.3481 100.96 33.9926 98.3352 36.6333 97.7353C66.5335 90.9057 92.1859 93.8465 112.878 106.488C115.182 107.907 115.915 110.912 114.501 113.216ZM124.106 91.8485C122.333 94.7303 118.562 95.6302 115.685 93.8625C94.591 80.8944 62.4197 77.1394 37.4636 84.7136C34.2282 85.6938 30.8108 83.8672 29.8252 80.6373C28.8503 77.4019 30.6769 73.9898 33.9069 73.0042C62.4143 64.3534 97.8585 68.5422 122.086 83.4334C124.968 85.2064 125.879 88.972 124.106 91.8485ZM124.93 69.5867C99.6262 54.5616 57.8881 53.1797 33.7301 60.5074C29.852 61.6858 25.7489 59.495 24.5758 55.6169C23.4027 51.7388 25.5882 47.6357 29.4716 46.4572C57.2024 38.0421 103.295 39.6651 132.424 56.956C135.911 59.029 137.058 63.5338 134.99 67.0156C132.928 70.508 128.412 71.6597 124.93 69.5867Z" fill="#2EBD59"/>
</g>
<defs>
<clipPath id="clip0_42_502">
<rect width="157" height="157" fill="white"/>
</clipPath>
</defs>
</svg>
