<svg width="155" height="157" viewBox="0 0 155 157" fill="none" xmlns="http://www.w3.org/2000/svg">
<path d="M1.97101 77.9004C1.97101 36.1329 35.9284 2.27026 77.8222 2.27026C119.712 2.27026 153.671 36.1329 153.671 77.9004C153.671 119.672 119.712 153.531 77.8222 153.531C35.9284 153.531 1.97101 119.67 1.97101 77.9004Z" fill="#397657"/>
<path d="M4.20715 77.9006C4.20715 37.3648 37.1638 4.50244 77.821 4.50244C118.476 4.50244 151.435 37.3648 151.435 77.9006C151.435 118.437 118.476 151.301 77.821 151.301C37.1638 151.3 4.20715 118.437 4.20715 77.9006Z" fill="white"/>
<path d="M6.60498 77.9005C6.60498 38.6851 38.4892 6.89453 77.8222 6.89453C117.153 6.89453 149.037 38.6851 149.037 77.9005C149.037 117.118 117.152 148.909 77.8222 148.909C38.488 148.909 6.60498 117.118 6.60498 77.9005Z" fill="#397657"/>
<path d="M33.8005 77.6009C33.8005 53.4485 53.4354 33.8704 77.6556 33.8704C101.876 33.8704 121.51 53.4485 121.51 77.6009C121.51 101.75 101.876 121.326 77.6556 121.326C53.4354 121.326 33.8005 101.75 33.8005 77.6009ZM84.5901 13.1467C85.7915 14.2209 86.1319 15.6346 86.0699 17.2022C85.7307 18.3104 85.1154 19.3846 84.1268 20.1545C85.3306 21.0444 86.5332 21.9682 86.7168 23.565C87.0572 25.1326 86.5928 26.5451 85.699 27.7138C83.8204 29.8331 80.8304 29.2815 78.1165 29.3712L70.951 29.5591L70.9023 28.9093L70.1655 12.6848L70.1351 12.3308C74.8505 12.3005 80.3976 11.0844 84.5901 13.1467ZM97.9386 15.4345C96.6728 19.0766 95.0107 22.6738 94.1133 26.5148C94.0626 27.0111 94.1941 27.509 94.4834 27.916C94.7728 28.3231 95.2003 28.6118 95.6867 28.7286C96.4442 29.1445 97.5216 29.2221 98.0906 28.7286C100.527 25.3181 101.684 21.0759 103.211 17.2483C105.152 17.926 106.664 18.8935 108.545 19.6004C106.539 23.8426 105.306 28.8377 102.531 32.3246C100.529 34.0766 97.3538 33.6449 94.9511 33.0606C92.2067 32.0785 89.2167 30.3278 88.385 27.2531C87.7394 25.1484 90.6674 17.9248 92.2687 13.6086L97.9386 15.4345Z" fill="white"/>
<path d="M53.5193 35.6468L49.4496 38.3177C47.9309 37.52 47.0445 36.9817 45.9355 36.4749L41.4305 40.2564C41.8938 41.3645 42.4847 42.7151 42.9772 43.9445L38.9536 48.4292L38.6302 47.7224L31.5085 30.8505L38.0125 25.271L38.5366 25.5947C43.6399 28.7009 48.8842 32.3636 54.0531 35.2964L53.5193 35.6468ZM54.5358 35.0285C52.3995 29.8333 49.7828 23.7652 47.847 18.8925C52.7496 16.9248 59.8398 12.0848 64.2147 16.5889C65.3236 17.8183 65.478 19.5387 65.5084 21.1064C65.2336 22.1187 64.9832 23.1359 64.3071 23.9652C65.7699 25.7608 68.4863 27.7989 70.3649 29.5811L70.1339 29.6587L64.5855 30.8796C62.6121 29.2974 61.4946 28.1808 59.7777 27.0072C59.0372 27.0969 58.5278 27.5297 57.8322 27.8364L59.7437 32.2023L54.5358 35.0285Z" fill="white"/>
<path d="M79.7823 16.0045C80.2127 16.4628 80.1227 17.4182 79.8723 17.9408C79.0734 18.8646 77.5936 18.8307 76.3606 18.6767C76.4506 17.6328 76.064 16.618 76.1418 15.5438C77.1899 15.6966 79.0114 15.1728 79.7823 16.0045ZM59.4385 20.2443C59.7437 21.013 59.7619 22.2642 59.1053 22.7201L56.0545 24.0101C55.2934 22.6146 54.9699 21.658 54.4459 20.5232C55.8624 20.0006 58.2955 17.8801 59.4385 20.2443ZM80.7988 23.0111C81.0432 24.0889 80.5532 25.1946 79.5038 25.4104C78.5177 25.562 77.7796 25.471 76.7303 25.5013C76.5759 24.3932 76.4859 22.9189 76.5759 21.9963C77.9924 22.1806 80.1227 21.4131 80.7988 23.0111Z" fill="#397657"/>
<path d="M122.409 29.0063C123.459 30.2963 124.17 31.8942 124.631 33.5225C123.336 34.216 122.35 35.0004 121.116 35.5521C120.81 33.6462 119.761 31.71 117.881 30.7582C116.987 30.2345 115.66 30.1423 114.644 30.4806C113.071 31.0637 111.716 32.4168 111.13 33.9844C110.606 35.4902 111.191 36.9645 112.057 38.1321C113.257 39.4851 114.863 40.1944 116.676 40.255C115.861 41.5911 115.416 42.4349 114.644 43.4825C111.622 43.0508 108.787 41.391 107.062 38.594C105.582 36.2286 105.491 32.6023 106.786 30.112C108.14 27.3756 110.824 25.6237 113.718 25.2236C117.203 25.1011 120.346 26.4845 122.409 29.0063Z" fill="white"/>
<path d="M42.3291 34.1689C41.4579 34.9697 40.5316 35.7086 39.5568 36.3803C38.8163 34.6284 38.1062 33.0607 37.3365 31.1245C39.1069 32.0641 40.6621 33.1529 42.3291 34.1689Z" fill="#397657"/>
<path d="M131.66 39.8854C130.244 41.2991 128.364 42.4993 126.85 43.8512C129.256 44.3725 131.967 44.2804 134.434 44.6805C135.544 46.2809 136.129 47.817 137.208 49.752L128.146 49.1082C126.142 52.2423 124.324 55.4382 122.597 58.6959C121.519 57.1283 120.689 55.1024 119.638 53.3504C120.812 50.9826 122.335 48.4777 123.51 46.1099C121.491 47.3563 119.718 48.9688 117.664 50.2588L114.462 45.9705C118.776 42.2823 123.431 38.9943 127.963 35.6468L128.33 35.5146L131.66 39.8854ZM29.9071 38.7494C29.0888 40.4395 28.0103 41.5912 27.2576 43.205L37.7985 50.1193C37.2429 51.6858 36.0415 53.2255 35.0226 54.7289L24.2044 47.9976C23.2341 49.2731 22.5386 50.5801 21.567 52.2095C20.1493 51.2736 19.1473 50.6577 18.008 49.8453C20.6916 45.3849 23.2341 41.2069 26.1924 36.5791L29.9071 38.7494Z" fill="white"/>
<path d="M59.5637 79.8572C59.5825 80.5858 59.5082 81.3139 59.3424 82.0237C57.7094 85.313 55.0599 88.1998 54.6295 91.9837C52.7496 93.1791 51.2054 95.2705 48.5255 94.5649C48.4319 95.2705 48.6483 96.3435 48.8939 97.1437C46.7685 97.054 45.3178 98.6192 43.5292 99.3576C42.5747 99.0521 42.3279 97.8202 41.9594 96.9606C44.0533 96.255 45.5635 94.1636 47.9686 94.1976C48.247 93.4253 47.8129 92.7196 47.6901 91.9837C44.6989 90.6598 39.9531 98.5283 39.5543 91.7061C42.5431 91.5218 44.4545 88.7551 47.4153 88.4786L47.5053 86.2648C44.1457 85.9265 41.9874 89.3697 38.629 89.0303L37.8873 86.0817C41.771 86.3254 44.0849 82.8542 47.7838 82.6675C48.275 82.0237 48.337 81.0696 48.4319 80.1785C44.3937 79.6547 41.6202 84.1139 37.3352 82.7597C37.3352 82.7597 37.1893 80.9035 37.1091 79.856H59.5637" fill="black"/>
<path d="M64.301 79.8574C64.4372 81.4942 64.0359 83.1273 62.4893 84.7919C60.269 87.401 58.0207 90.6903 59.6233 94.1978C61.3195 98.0666 66.6514 101.079 64.3387 105.905C63.0766 108.948 60.0538 111.254 60.1778 114.849C59.3777 114.511 58.5472 114.171 57.8675 113.559C57.8675 108.98 64.3995 106.121 61.2867 101.295C61.0119 102.247 60.9499 103.538 60.7335 104.615C59.6525 107.412 57.3422 109.654 56.4777 112.548C55.0319 111.991 53.5193 110.824 52.3168 109.594L53.9838 108.578C53.799 107.962 53.3041 107.441 52.8724 106.918C51.7915 106.767 51.0838 107.472 50.1913 107.75C49.4204 107.072 48.6787 106.458 48.0646 105.628C48.6179 104.058 52.9345 105.353 50.7446 102.771C49.266 101.849 47.7874 103.171 46.4924 103.787L44.7354 101.573C46.2456 100.651 47.7546 99.359 49.6332 99.7288C50.0965 100.561 50.1293 101.786 51.0218 102.22C54.1966 102.158 56.4473 99.7603 58.8816 97.8847C57.1841 95.3678 55.8004 91.8918 57.3082 88.8487C58.5156 85.7982 61.6649 83.2316 61.8071 79.8598H64.301" fill="black"/>
<path d="M68.8183 79.8574C68.9763 81.2638 68.7441 82.7066 67.7592 84.2354C65.7578 86.944 63.1374 89.798 64.3375 93.3637C65.4781 96.9609 69.9795 99.142 69.7022 103.324C69.6718 108.27 63.9059 111.346 65.5401 116.878L62.6741 115.955C61.5348 111.038 66.7743 108.519 66.8351 103.97C67.5756 98.7419 60.8831 96.8045 61.2843 91.7063C61.2564 87.8327 64.6768 85.3739 66.187 82.1161C66.4294 81.3888 66.5349 80.623 66.4983 79.8574H68.8183Z" fill="black"/>
<path d="M84.6643 79.8572C84.4722 81.1411 84.7062 82.4524 85.3306 83.5914C87.3333 86.7546 90.8485 90.1081 88.6562 94.1976C86.3471 97.5741 82.4938 100.866 84.0332 105.258C85.7294 109.102 89.2739 112.758 87.3612 117.524L84.4965 118.168C86.7764 113.525 83.3572 108.919 81.3545 104.891C78.9178 99.1127 86.5928 96.3423 86.7156 91.0598C86.6864 87.6505 83.0483 85.7131 82.2798 82.5778C80.7064 81.2539 79.0722 83.1016 77.1912 82.7597C75.8038 83.0385 73.6771 80.8538 72.8466 83.2216C71.8593 86.6927 67.3567 89.2461 69.3326 93.3634C71.2136 97.0225 75.7418 99.6958 74.2304 104.432C72.8758 108.854 68.406 113.068 71.1796 118.168C70.039 117.801 67.9111 118.506 67.9428 116.693C66.1857 110.514 73.6771 106.918 71.3632 100.742C70.2859 96.9606 65.3832 94.8692 66.463 90.3203C67.2606 86.5764 71.469 83.9575 70.878 79.856H84.6643" fill="black"/>
<path d="M89.1207 79.8574C89.0611 80.9086 89.2739 81.9537 89.9536 82.9454C92.0815 86.3887 95.7804 90.1702 93.6537 94.6573C91.2498 98.2521 87.0573 101.91 89.3979 106.644C91.0942 109.472 93.7157 112.297 93.0081 115.773L90.2321 116.694C92.0815 110.21 83.0179 106.396 86.8117 99.9119C89.1548 96.4383 93.3449 93.1794 90.9738 88.5698C89.556 85.7146 86.6268 84.0233 86.718 80.4551L86.8177 79.8586L89.1207 79.8574Z" fill="black"/>
<path d="M93.712 79.8572C93.6971 80.7776 93.9319 81.685 94.3917 82.4833C96.3956 86.0829 100.003 89.4922 98.6475 94.0084C98.2742 95.3942 97.1689 96.4708 96.8905 97.8821C99.236 99.8195 101.454 101.999 104.565 102.123C105.674 101.417 105.058 98.2822 107.339 99.7261L110.667 101.388C110.424 102.278 109.681 103.08 109.005 103.692C107.741 103.078 106.509 102.34 104.934 102.4C104.469 102.892 104.068 103.446 104.103 104.151C105.212 104.333 106.226 104.795 107.153 105.441C106.723 106.365 105.888 106.947 105.117 107.655L102.529 106.731C102.098 107.347 101.201 107.994 101.515 108.669C102.098 108.917 102.748 109.253 103.177 109.685C102.036 110.914 100.589 111.71 99.1995 112.545C98.0006 108.64 94.0513 105.902 94.3905 101.387L94.2081 101.203C93.2816 102.244 93.5929 103.907 93.6536 105.257C94.7638 108.085 97.4145 110.27 97.8158 113.372C97.3525 114.17 96.3044 114.324 95.5019 114.662C95.5955 109.069 87.0888 104.83 92.5447 99.1733C94.3638 96.4029 97.4145 93.7623 96.3336 89.9505C95.2246 86.2684 91.2972 83.983 91.3312 79.856H93.712" fill="black"/>
<path d="M118.347 79.8572C118.377 80.8962 118.473 81.7898 118.066 82.8555C113.843 84.0533 111.07 79.5965 106.972 80.2694L107.433 82.5778C111.224 82.7015 113.597 86.3266 117.513 86.1702C116.957 87.2783 117.76 90.1978 115.295 89.0303C112.737 88.4168 110.886 86.1702 108.081 86.1702C107.743 86.7885 107.957 87.6505 107.897 88.3841C110.856 88.846 112.982 91.3375 115.939 91.7982C115.661 92.8118 115.384 93.9454 114.552 94.5637C112.146 93.9793 110.267 91.8261 107.706 91.8879L107.248 94.0072C109.682 94.069 111.256 96.2211 113.443 96.8649C113.503 97.7596 112.704 98.5574 112.242 99.3564C110.301 98.7744 108.82 97.1134 106.601 97.2371C106.569 96.4029 107.063 95.4536 106.876 94.5637C104.383 95.3021 102.715 92.9961 100.869 91.6103C100.816 87.0783 96.0309 84.1018 95.778 79.856H118.347" fill="black"/>
<path d="M37.1103 79.8572C37.0811 79.4474 37.058 79.1637 37.058 79.1637C40.8809 80.6416 44.2381 77.9052 47.5066 76.4928C48.3383 76.2442 49.632 76.6758 50.0053 75.7544C49.9725 75.0476 51.2675 74.2171 50.1901 73.7248C45.4103 73.0786 42.2367 78.8279 37.3365 76.2151L36.9644 75.4768C37.9834 61.5862 45.8432 48.1551 58.8804 41.5463C70.5327 34.9059 88.4118 35.4612 99.3844 43.206C105.212 46.7705 110.79 52.6422 113.814 58.6061C116.708 63.8304 118.036 69.6984 118.433 75.9387C113.377 79.7493 109.987 72.3451 104.838 74.0025C105.116 74.8027 105.271 75.632 105.859 76.3085C110.423 76.277 113.565 81.0417 118.342 79.1637L118.346 79.8572H95.7767C95.7287 78.9275 95.8882 77.9986 96.2436 77.1378C97.8158 73.5115 97.321 68.8061 95.5956 65.4247C95.0715 64.5348 94.1474 63.8291 93.2828 63.3054C94.5486 65.9812 96.088 69.1456 95.3183 72.4336C95.2296 74.9724 93.7303 77.4094 93.7133 79.8572H91.3325L91.3422 79.5347C92.2347 75.2306 94.9511 70.6502 92.7308 66.0709C92.1131 64.228 90.7294 62.1378 88.8483 61.3692C91.6523 64.5675 92.7612 69.7906 91.1574 74.0958C90.3488 75.8078 89.2338 77.8434 89.1231 79.856H86.8177C87.7722 74.7942 91.6353 70.0052 88.9371 64.5954C88.2282 62.9974 86.8116 61.3692 85.2394 60.4453L85.1446 60.5399C88.2902 63.583 89.2447 68.5939 87.5497 72.6179C86.7569 74.9785 85.0193 77.3257 84.6667 79.856H70.8793C70.8276 79.4955 70.7434 79.1405 70.6276 78.7951C69.0554 74.3686 65.8477 69.9445 67.7592 64.7785C68.2845 63.303 69.3338 62.0421 70.2555 60.723C67.2035 62.3512 65.6629 65.7945 65.7249 69.2983C65.5924 73.1065 68.417 76.3703 68.8182 79.856H66.4995C66.3146 76.2527 63.0596 73.4411 63.5995 69.3905C63.7818 66.4092 64.7984 63.7952 66.7402 61.5535C64.0603 62.6276 62.9514 65.7023 62.2109 68.2835C60.9256 72.4239 63.9934 76.146 64.3011 79.856H61.8072C61.837 79.0201 61.6916 78.1872 61.3804 77.4106C59.717 73.1392 59.1297 67.3633 62.3045 63.5818C60.5779 64.0437 59.5613 66.1921 58.9753 67.8216C57.0662 71.9923 59.4811 75.8575 59.5638 79.856H37.1103" fill="black"/>
<path d="M79.8723 44.2186L84.8673 44.4962L84.7749 44.9582L81.076 48.462C81.7217 50.0309 82.3698 51.5985 83.0179 53.1625C85.823 51.5367 88.5066 49.5071 91.8966 49.2901C91.5878 51.0748 90.232 52.9504 90.4144 54.7302C92.5119 54.147 94.4258 52.857 96.7069 52.9782C95.2867 55.5922 93.2208 58.2062 93.0968 61.4627C89.984 60.2976 86.7776 58.8803 83.2963 58.3286C75.867 57.0665 68.7136 58.696 62.578 61.6482C62.0552 58.5444 60.5462 55.8383 58.6956 53.2571C59.8045 52.8885 61.1603 53.5008 62.3032 53.8124C63.259 54.0864 64.0603 54.7314 65.078 54.9181C65.2604 53.074 64.1843 51.2603 63.4146 49.5689C63.9387 49.1689 64.7704 49.4744 65.3564 49.6623C67.7895 50.5825 69.9794 52.0265 72.1997 53.3505C73.3391 52.0265 73.7683 50.1206 74.2315 48.3687L70.4427 44.9582V44.5908L75.4353 44.3119C76.2658 42.7455 76.8215 41.0857 77.6544 39.5181C78.6721 40.9014 79.0114 42.7152 79.8723 44.2186Z" fill="white"/>
<path d="M81.6293 54.2695L81.1697 54.7302C78.857 54.4853 76.4227 54.7908 74.2316 54.8247C73.9859 54.5786 73.4947 54.2088 73.9531 53.9009L77.4684 51.2251C78.919 52.0592 80.4584 53.1334 81.6293 54.2695Z" fill="black"/>
<path d="M19.9498 55.5595C18.0371 57.0374 16.6814 59.1894 17.0839 61.647C17.3003 62.0155 17.5143 62.5672 18.008 62.6593C19.5486 62.6593 20.0726 61.002 20.7803 59.986C21.6132 58.1419 23.2182 56.1426 25.4057 55.9292C27.2855 55.808 28.8918 56.2978 30.1235 57.7733C32.0034 60.0187 31.6641 63.645 30.7716 66.259C29.9363 68.1952 28.6425 70.1593 26.7943 71.4214L23.4639 69.3919C25.2829 68.1346 27.1956 66.0723 27.4412 63.7675C27.4412 62.9382 27.2588 61.8313 26.2374 61.7379C24.112 62.3538 23.8967 64.9035 22.4486 66.3487C21.3396 67.4872 19.951 68.3455 18.1928 68.0994C16.5586 68.0061 15.17 66.9937 14.2155 65.7025C12.3964 62.9382 13.2901 58.8778 14.4003 56.7598C15.08 55.5595 15.8825 54.3616 16.9914 53.4377C17.9143 53.9627 18.9953 54.7629 19.9498 55.5595ZM140.722 57.9612C142.324 60.5413 142.944 63.9518 142.11 67.0883L138.688 66.904C139.153 64.8441 139.491 62.2629 138.041 60.5413C137.611 60.0187 136.84 59.7095 136.284 59.9872C134.404 62.0774 136.442 65.0914 135.27 67.4568C134.713 68.5347 133.882 69.8247 132.679 70.3133C130.735 71.0516 128.331 70.6831 126.851 69.2076C123.956 66.1947 122.598 61.5221 124.45 57.589H128.055C127.438 59.1288 127.01 61.3087 127.594 63.1225C127.9 63.8911 128.271 64.8744 129.167 65.1508C132.126 65.2575 130.121 61.0323 130.83 59.0633C131.108 57.589 131.908 56.0529 133.417 55.3752C136.191 54.0233 139.43 55.5595 140.722 57.9612ZM50.0053 63.7675C52.994 62.629 57.0625 60.6637 60.269 62.7539C59.5893 63.7056 58.2675 64.2294 57.3082 65.0575C55.7384 66.5936 53.8269 68.4668 52.6876 70.4042C48.8343 69.6343 45.7495 71.8821 42.5139 73.1721C41.2809 73.4158 39.6467 73.5395 38.6302 72.7102C41.6822 67.6981 45.9951 63.0885 44.9178 56.4809C45.257 55.8965 45.8419 56.39 46.2116 56.5743C48.5875 58.4183 49.7268 60.9705 50.0053 63.7675ZM110.853 57.2205C109.653 63.4898 113.966 67.9176 116.863 72.7114C113.537 74.9253 110.389 71.5111 107.247 70.6819C105.859 70.4685 104.227 70.2818 102.898 70.4976C100.991 67.549 98.4311 64.7811 95.3171 63.1225C95.5007 62.1101 96.9184 62.0446 97.907 61.9222C100.65 61.6482 103.054 62.7842 105.305 63.953C105.736 62.9406 105.921 61.801 106.228 60.7268C106.971 58.913 108.421 57.0665 110.301 56.3002C110.7 56.3609 110.977 56.7925 110.853 57.2205ZM85.1433 62.9394C85.2382 63.4607 85.761 63.9227 85.4218 64.5071C83.6027 63.9518 81.5393 64.2585 79.7811 64.9653C78.2076 66.1329 78.4545 68.5335 78.8557 70.2211L79.319 70.5921C80.0887 70.4066 80.1215 69.4246 80.7976 69.2076C81.9393 69.4852 83.5103 69.8865 84.5889 69.2076C85.5434 69.2391 85.5154 70.5594 85.6054 71.2371C84.9281 74.8028 83.4179 78.6753 79.7811 80.3654C78.2697 81.1037 76.3266 80.6091 74.8784 80.0877C71.3036 77.9672 69.2997 73.7565 69.701 69.9471C69.9794 69.3628 70.4111 68.9008 71.0908 69.3009C72.5353 70.283 74.1075 68.5335 75.4353 69.7592C77.0367 69.0524 76.0822 67.0883 76.0822 65.6128C74.7884 63.9518 72.5681 64.1967 70.6275 64.3203C69.763 63.7966 70.6895 62.9685 70.9023 62.3841C72.9998 59.4343 77.0087 59.3737 80.5191 59.8029C82.309 60.2636 84.2824 61.0323 85.1433 62.9394Z" fill="white"/>
<path d="M74.4164 67.1791V67.5501C73.3695 67.4567 71.6757 66.4116 70.7188 67.7331C70.1035 68.0071 70.0111 67.3003 70.0731 66.9026C70.0431 66.8057 70.0339 66.7035 70.0462 66.6028C70.0585 66.502 70.0919 66.405 70.1444 66.3181C70.1968 66.2311 70.2671 66.1561 70.3505 66.0981C70.434 66.0401 70.5288 66.0002 70.6288 65.9812C72.0745 65.6429 73.7087 66.0721 74.4164 67.1791ZM85.4218 66.7171C85.3927 67.0881 85.4838 67.5173 85.0522 67.7331C83.88 67.2724 82.2458 66.6262 81.0749 67.5501C80.3952 66.1049 82.2786 66.4116 82.9243 65.9824C83.8812 65.9485 84.9914 65.9206 85.4218 66.7171Z" fill="white"/>
<path d="M79.5027 72.6192C78.9494 73.7867 77.1608 73.0496 76.1734 73.2629C75.8378 73.1393 76.0494 72.7731 75.9886 72.527C76.9759 71.8493 78.733 71.7596 79.5027 72.6192ZM80.9812 75.2028C80.2456 76.3085 79.1342 77.6895 77.6556 77.601C75.9886 77.7234 75.6202 76.3704 74.4164 75.5714L74.3264 75.0149C76.5467 75.3544 78.981 74.9264 80.9812 75.2028Z" fill="black"/>
<path d="M23.3703 89.5857C25.238 89.576 27.0302 89.6475 28.9587 89.6027L24.6677 93.1805C25.0811 94.6863 25.4386 96.4176 25.9614 98.4375L21.7069 95.4865C19.9182 96.3012 18.8409 97.3003 16.9927 98.252L18.4713 93.1793C17.0669 92.0336 15.4971 90.946 14.1693 89.7785C16.1051 89.7288 17.8001 89.8064 19.6714 89.7688C20.5359 88.1563 20.9214 86.3086 21.7069 84.696L23.3703 89.5857ZM45.2875 113.836C45.6596 114.726 46.1958 115.432 46.4244 116.768C45.4395 117.386 44.1944 117.893 43.0684 118.447C42.7936 116.418 41.0038 114.45 39.0011 113.926C37.3377 113.514 35.5187 114.298 34.2869 115.773C33.268 116.968 32.9591 118.692 33.268 120.198C34.0705 122.284 36.2896 123.861 38.5391 123.861L39.1859 123.88C38.7203 125.031 38.1645 126.143 37.5238 127.207C33.7921 127.081 30.0324 124.898 28.6438 121.301C27.4424 118.384 27.9677 114.603 29.8476 112.173C32.1287 109.286 35.7667 108.486 39.2808 109.224C41.6494 109.872 43.8697 111.653 45.2875 113.836ZM117.138 111.901L117.372 112.129L111.823 117.28L113.673 119.506C115.244 118.276 116.941 116.969 118.62 115.404C119.484 116.127 120.179 116.969 120.994 117.926C119.332 119.506 117.603 120.582 116.156 122.089C116.772 122.859 117.248 123.732 118.188 124.656L124.17 119.737L126.726 122.366C123.336 125.576 119.638 128.882 116.124 131.447L105.673 117.984C109.004 115.216 111.808 112.697 114.737 109.776C115.632 110.363 116.28 111.129 117.138 111.901ZM58.3272 123.242C60.207 125.639 60.2374 129.356 59.0653 132.092C57.7581 134.874 55.2448 136.643 52.5004 137.256C49.1748 137.778 46.0292 136.705 43.6241 134.401C41.4986 132.064 40.3265 128.714 41.4038 125.457C42.3595 121.922 45.8116 119.341 49.3584 118.91C53.0245 118.693 56.4157 120.383 58.3272 123.242Z" fill="white"/>
<path d="M54.4446 125.456C55.4891 127.883 54.2878 130.28 52.5928 132.001C51.5155 132.86 50.1038 133.402 48.6872 132.88C47.7947 132.449 46.6918 131.662 46.445 130.708C45.7653 128.251 46.8925 125.946 48.6167 124.256C49.6648 123.394 51.1762 122.904 52.4992 123.517C53.3017 123.762 54.1954 124.656 54.4446 125.456Z" fill="#397657"/>
<path d="M91.2498 129.356C88.6562 129.729 86.1794 130.036 83.7098 130.437C83.9591 131.649 83.8484 132.461 84.0344 133.385C86.3472 133.34 88.3668 132.931 90.5251 132.653L91.1562 136.596C88.9603 137.003 86.7487 137.321 84.5269 137.55C84.5889 139.331 84.826 141.512 84.7981 143.48C82.9802 143.757 81.0177 143.956 79.1367 143.833L78.0277 127.022L78.0131 126.67C82.1634 126.275 86.2997 125.746 90.4157 125.085C90.5871 126.346 90.9726 127.802 91.2498 129.356ZM105.392 121.799L105.548 122.088L98.7764 125.474L99.9231 128.128C101.989 127.343 103.773 126.61 105.825 125.576C106.451 126.513 106.881 127.516 107.396 128.659C105.535 129.649 103.607 130.416 101.578 131.305C101.955 132.214 102.145 132.877 102.807 134.336L109.934 131.288L111.65 134.53C107.491 136.661 103.012 138.797 98.9138 140.277L92.6724 124.433C96.6473 122.709 100.051 121.073 103.682 119.093C104.378 119.903 104.783 120.822 105.392 121.799ZM75.4852 131.267C72.9062 130.837 70.4452 130.377 67.9756 130.007C67.8382 131.239 67.4892 131.982 67.3859 132.915C69.6025 133.573 71.6502 133.796 73.7902 134.187L73.1883 138.139C70.9714 137.86 68.7667 137.491 66.5797 137.033C66.0958 138.748 65.6605 140.9 65.0343 142.767C63.2152 142.478 61.2831 142.071 59.5297 141.381L63.5982 125.033L63.6943 124.695C67.7944 125.578 71.9943 126.35 75.9935 126.946C75.7697 128.198 75.6919 129.707 75.4852 131.267ZM135.414 89.6111C137.278 89.6038 138.944 89.6535 140.999 89.6305L136.711 93.2083C137.128 94.7117 137.482 96.443 138.002 98.4653L133.752 95.5119C131.959 96.3242 130.883 97.3257 129.034 98.2774L130.514 93.2071C129.11 92.0638 127.537 90.9714 126.216 89.8039C128.147 89.7542 129.844 89.8318 131.714 89.7942C132.469 88.115 133.009 86.5025 133.752 84.7214L135.414 89.6111Z" fill="white"/>
<path d="M127.859 141.458C130.269 141.458 132.335 143.326 132.335 145.861C132.335 148.419 130.27 150.286 127.859 150.286C125.425 150.286 123.36 148.419 123.36 145.861C123.36 143.326 125.425 141.458 127.859 141.458ZM127.859 142.172C125.807 142.172 124.22 143.755 124.22 145.861C124.22 148.014 125.808 149.573 127.859 149.573C129.889 149.573 131.475 148.015 131.475 145.861C131.474 143.755 129.889 142.172 127.859 142.172ZM126.916 148.419H126.129V143.326H128.085C129.302 143.326 129.899 143.778 129.899 144.777C129.899 145.694 129.326 146.086 128.562 146.181L130.017 148.419H129.159L127.798 146.205H126.914L126.916 148.419ZM126.916 145.564H127.847C128.801 145.564 129.112 145.289 129.112 144.73C129.112 144.242 128.873 143.968 127.978 143.968H126.916V145.564Z" fill="black"/>
</svg>
