<svg width="35" height="35" viewBox="0 0 35 35" fill="none" xmlns="http://www.w3.org/2000/svg">
<g clip-path="url(#clip0_30_1051)">
<path d="M35 17.5C35 7.83267 27.1674 0 17.5 0C7.83267 0 0 7.83267 0 17.5C0 26.2344 6.39949 33.4744 14.7656 34.7883V22.5587H10.3201V17.5H14.7656V13.6443C14.7656 9.25878 17.3765 6.83629 21.3754 6.83629C23.2906 6.83629 25.2931 7.17782 25.2931 7.17782V11.4823H23.0858C20.9125 11.4823 20.2344 12.8315 20.2344 14.2152V17.5H25.0878L24.3115 22.5587H20.2344V34.7883C28.6004 33.4744 35 26.2344 35 17.5Z" fill="#E1DED6"/>
</g>
<defs>
<clipPath id="clip0_30_1051">
<rect width="35" height="35" fill="white"/>
</clipPath>
</defs>
</svg>
