<svg width="37" height="36" viewBox="0 0 37 36" fill="none" xmlns="http://www.w3.org/2000/svg">
<g clip-path="url(#clip0_30_1049)">
<path d="M18.5041 8.77005C13.2544 8.77005 9.01992 12.891 9.01992 18C9.01992 23.1089 13.2544 27.2299 18.5041 27.2299C23.7538 27.2299 27.9883 23.1089 27.9883 18C27.9883 12.891 23.7538 8.77005 18.5041 8.77005ZM18.5041 24.0007C15.1116 24.0007 12.3382 21.3097 12.3382 18C12.3382 14.6904 15.1033 11.9993 18.5041 11.9993C21.9049 11.9993 24.6701 14.6904 24.6701 18C24.6701 21.3097 21.8966 24.0007 18.5041 24.0007ZM30.5885 8.3925C30.5885 9.58943 29.598 10.5454 28.3762 10.5454C27.1463 10.5454 26.1642 9.58138 26.1642 8.3925C26.1642 7.20362 27.1547 6.23965 28.3762 6.23965C29.598 6.23965 30.5885 7.20362 30.5885 8.3925ZM36.8699 10.5775C36.7297 7.69363 36.0528 5.13913 33.882 3.03448C31.7194 0.929822 29.0944 0.271114 26.1311 0.12652C23.0771 -0.0421734 13.923 -0.0421734 10.8689 0.12652C7.91384 0.263081 5.28896 0.921789 3.11806 3.02645C0.947183 5.1311 0.278584 7.6856 0.130006 10.5695C-0.0433352 13.5417 -0.0433352 22.4503 0.130006 25.4225C0.270329 28.3064 0.947183 30.8608 3.11806 32.9656C5.28896 35.0701 7.90557 35.7289 10.8689 35.8735C13.923 36.0421 23.0771 36.0421 26.1311 35.8735C29.0944 35.7368 31.7194 35.0782 33.882 32.9656C36.0445 30.8608 36.7214 28.3064 36.8699 25.4225C37.0433 22.4503 37.0433 13.5497 36.8699 10.5775ZM32.9245 28.6115C32.2807 30.1862 31.0341 31.399 29.4082 32.0337C26.973 32.9735 21.1951 32.7566 18.5041 32.7566C15.8132 32.7566 10.0269 32.9656 7.60017 32.0337C5.98233 31.4071 4.73593 30.1941 4.08382 28.6115C3.11806 26.2418 3.34093 20.6188 3.34093 18C3.34093 15.3812 3.12633 9.75008 4.08382 7.38837C4.72766 5.81391 5.97406 4.60091 7.60017 3.9663C10.0352 3.02645 15.8132 3.24333 18.5041 3.24333C21.1951 3.24333 26.9813 3.03448 29.4082 3.9663C31.026 4.59288 32.2723 5.80586 32.9245 7.38837C33.8902 9.75812 33.6672 15.3812 33.6672 18C33.6672 20.6188 33.8902 26.2499 32.9245 28.6115Z" fill="#E1DED6"/>
</g>
<defs>
<clipPath id="clip0_30_1049">
<rect width="37" height="36" fill="white"/>
</clipPath>
</defs>
</svg>
