<svg width="40" height="36" viewBox="0 0 40 36" fill="none" xmlns="http://www.w3.org/2000/svg">
<path d="M35.8884 8.97184C35.9138 9.36558 35.9138 9.7594 35.9138 10.1531C35.9138 22.1625 27.6652 36 12.5889 36C7.94418 36 3.62946 34.5092 0 31.9219C0.659924 32.0062 1.29438 32.0344 1.9797 32.0344C5.81214 32.0344 9.34012 30.6001 12.1574 28.1531C8.55332 28.0688 5.533 25.4532 4.49236 21.8531C5.00002 21.9374 5.5076 21.9936 6.04064 21.9936C6.77666 21.9936 7.51276 21.8811 8.198 21.6844C4.44166 20.8405 1.6243 17.1844 1.6243 12.7687V12.6563C2.71564 13.3313 3.98478 13.7532 5.32986 13.8093C3.12174 12.178 1.67508 9.39372 1.67508 6.24369C1.67508 4.55621 2.0811 3.00935 2.7918 1.65933C6.82738 7.17182 12.8934 10.7718 19.6954 11.1656C19.5685 10.4906 19.4923 9.78753 19.4923 9.08439C19.4923 4.07809 23.1472 0 27.6904 0C30.0508 0 32.1828 1.09687 33.6802 2.86874C35.533 2.47503 37.3096 1.71561 38.8832 0.675005C38.274 2.78443 36.9796 4.55629 35.2792 5.68123C36.929 5.48445 38.528 4.97809 40 4.27503C38.8834 6.07496 37.4874 7.67803 35.8884 8.97184Z" fill="#E1DED6"/>
</svg>
